<?xml version="1.0" standalone="no"?>
<!DOCTYPE svg PUBLIC "-//W3C//DTD SVG 20010904//EN"
 "http://www.w3.org/TR/2001/REC-SVG-20010904/DTD/svg10.dtd">
<svg version="1.0" xmlns="http://www.w3.org/2000/svg"
 width="512.000000pt" height="512.000000pt" viewBox="0 0 512.000000 512.000000"
 preserveAspectRatio="xMidYMid meet">
<metadata>
Created by potrace 1.14, written by Peter Selinger 2001-2017
</metadata>
<g transform="translate(0.000000,512.000000) scale(0.100000,-0.100000)"
fill="#000000" stroke="none">
<path d="M1919 5029 c-25 -12 -49 -34 -70 -66 -28 -44 -30 -54 -26 -113 6 -95
55 -182 156 -278 61 -58 145 -122 160 -122 19 0 165 74 225 114 106 70 178
175 178 261 0 147 -162 228 -304 152 l-47 -25 -26 28 c-62 64 -165 85 -246 49z"/>
<path d="M1473 4619 c-44 -9 -94 -49 -118 -93 -15 -28 -24 -35 -39 -30 -96 31
-211 -39 -220 -134 -12 -117 109 -207 321 -236 l94 -13 30 38 c16 21 48 77 71
126 82 175 52 315 -74 342 -18 4 -48 4 -65 0z"/>
<path d="M3317 4523 c-1 0 -31 -4 -67 -7 -331 -28 -635 -201 -811 -463 -54
-80 -113 -206 -124 -266 -12 -62 -15 -62 -106 -19 -233 111 -512 147 -744 95
-11 -2 -30 -6 -42 -9 -12 -2 -62 -18 -110 -35 -428 -150 -748 -514 -888 -1011
-15 -53 -18 -56 -39 -49 -37 15 -126 4 -174 -20 -85 -44 -163 -170 -187 -301
-3 -13 -9 -45 -14 -73 -9 -49 -8 -301 2 -360 15 -83 20 -106 38 -180 28 -109
118 -319 148 -345 3 -3 19 -24 35 -48 69 -102 202 -196 321 -227 32 -8 59 -16
59 -17 1 -2 24 -30 51 -63 53 -65 100 -111 155 -153 19 -15 40 -31 46 -37 6
-5 26 -19 46 -29 l35 -19 -32 -91 c-18 -50 -43 -140 -56 -201 l-23 -110 -72
-68 c-87 -81 -144 -163 -144 -206 0 -41 31 -71 74 -71 34 0 47 11 100 84 23
32 27 29 31 -21 3 -54 12 -69 46 -83 22 -10 35 -10 58 -1 35 15 48 42 48 99 0
23 3 45 6 48 3 4 19 -16 36 -42 42 -70 57 -84 91 -84 36 0 80 39 80 70 0 41
-46 115 -117 189 -74 76 -74 76 -68 121 9 74 28 145 66 245 l20 53 62 -19 c94
-28 211 -46 322 -48 55 -1 101 -4 103 -5 2 -2 -6 -32 -17 -67 -18 -57 -31
-116 -45 -202 -3 -17 -34 -57 -88 -110 -113 -113 -138 -148 -138 -198 0 -53
80 -90 122 -57 9 7 28 33 43 56 14 24 28 42 31 40 2 -3 6 -24 9 -49 7 -57 44
-94 88 -85 47 9 67 41 67 103 0 29 3 53 8 53 9 -1 48 -61 56 -87 8 -24 55 -50
83 -45 28 4 63 47 63 77 0 39 -53 123 -123 194 -69 69 -69 70 -62 113 7 47 37
157 62 230 l16 47 76 6 c42 4 87 9 101 11 128 21 169 30 260 56 170 48 325
131 383 205 l19 23 41 -33 c108 -87 202 -140 332 -188 97 -35 101 -38 122 -82
24 -48 68 -192 83 -268 l9 -47 -74 -76 c-125 -130 -152 -219 -75 -258 29 -15
36 -15 60 -3 15 8 42 39 59 70 17 30 35 55 39 55 4 0 8 -25 8 -56 0 -49 4 -60
28 -80 57 -50 122 -12 128 74 l3 47 43 -57 c37 -51 47 -58 76 -58 41 0 74 25
80 61 8 48 -70 156 -180 249 -37 32 -42 41 -53 105 -11 64 -42 189 -55 225 -6
13 13 15 141 13 133 -1 190 4 325 32 15 3 39 10 53 15 23 9 26 6 41 -28 28
-67 62 -175 78 -256 l17 -79 -59 -56 c-100 -96 -153 -193 -130 -237 16 -30 39
-44 74 -44 34 0 46 11 94 89 13 23 27 41 31 41 3 0 7 -26 8 -57 0 -49 5 -62
26 -80 56 -50 125 -10 125 72 0 25 4 45 8 45 4 0 21 -21 37 -46 16 -25 37 -49
46 -55 53 -28 124 16 116 70 -7 43 -60 115 -148 201 -74 73 -76 76 -88 145 -7
39 -17 84 -21 100 -28 100 -36 126 -58 179 -13 32 -22 59 -20 60 31 13 108 58
160 93 84 55 155 118 231 208 33 38 70 75 81 81 291 150 501 400 609 724 22
65 39 128 38 145 0 2 5 19 10 37 15 52 24 162 24 298 0 147 -8 220 -35 324
-75 286 -223 453 -404 459 l-64 2 -12 53 c-30 137 -129 400 -207 557 -217 432
-569 665 -1024 678 -28 1 -51 1 -52 0z"/>
</g>
</svg>
